Coordinates
version=1
nRows=18
nColumns=22
inDegrees=yes

Units are S.I. units (second, meters, Newtons, ...)
If the header above contains a line with 'inDegrees', this indicates whether rotational values are in degrees (yes) or radians (no).

endheader
time	pelvis_tilt	pelvis_list	pelvis_rotation	pelvis_tx	pelvis_ty	pelvis_tz	hip_flexion_r	hip_adduction_r	hip_rotation_r	knee_angle_r	ankle_angle_r	subtalar_angle_r	hip_flexion_l	hip_adduction_l	hip_rotation_l	knee_angle_l	ankle_angle_l	subtalar_angle_l	lumbar_extension	lumbar_bending	lumbar_rotation
      0.01000000	     -8.04564481	     -0.54908197	      3.07963254	     -1.09318506	      0.88755786	     -0.58070509	     10.95235902	     -0.28453440	      1.86974235	    -11.40523717	     13.16040955	     -4.39789628	     15.34106764	     -6.64556580	     -1.36274793	    -19.21076570	     11.88315588	     10.13457031	     -0.22626614	      4.86978912	      8.18884131
      0.02000000	     -8.02598073	     -0.52860695	      3.23138739	     -1.09374623	      0.88772316	     -0.58048707	     10.87036112	     -0.30748673	      1.73909585	    -11.24503794	     13.07555691	     -4.44892238	     15.58383351	     -6.62463198	     -1.32392430	    -19.59282851	     11.92168264	     10.29214574	     -0.31322147	      4.82099187	      8.31691724
      0.03000000	     -7.99969021	     -0.51023413	      3.38294898	     -1.09436489	      0.88790754	     -0.58021432	     10.77504112	     -0.32438411	      1.60909724	    -11.06580869	     12.98140396	     -4.49577418	     15.86373229	     -6.61230301	     -1.32719019	    -20.06721796	     12.00339956	     10.54226247	     -0.41361824	      4.76546893	      8.48446800
      0.04000000	     -7.96472491	     -0.48742725	      3.52194068	     -1.09500805	      0.88810884	     -0.57990959	     10.66691576	     -0.34291695	      1.48971977	    -10.87450786	     12.87753855	     -4.53982308	     16.15646476	     -6.60017493	     -1.37795630	    -20.60628888	     12.12069115	     10.82395524	     -0.52573302	      4.69815394	      8.68682103
      0.05000000	     -7.92204560	     -0.46260755	      3.63655561	     -1.09563313	      0.88831509	     -0.57957336	     10.54814993	     -0.35894281	      1.38398584	    -10.67558721	     12.76747093	     -4.57994018	     16.44643781	     -6.59167285	     -1.47991667	    -21.19367794	     12.27656636	     11.08527341	     -0.64226909	      4.61996545	      8.91925894
      0.06000000	     -7.87507660	     -0.44308658	      3.72219674	     -1.09621655	      0.88851570	     -0.57922880	     10.42399873	     -0.36554701	      1.29721064	    -10.47437642	     12.65152705	     -4.61776878	     16.72642926	     -6.59360170	     -1.63289849	    -21.81559836	     12.46565921	     11.31096270	     -0.75462121	      4.54243663	      9.17388673
      0.07000000	     -7.82563526	     -0.43322510	      3.77648420	     -1.09674686	      0.88869596	     -0.57887658	     10.29695601	     -0.35849983	      1.23127518	    -10.27168777	     12.53133521	     -4.65360644	     16.99374281	     -6.61164568	     -1.83727456	    -22.46953062	     12.67687739	     11.49306569	     -0.85886461	      4.46916387	      9.44492631
      0.08000000	     -7.77643334	     -0.44056572	      3.79471210	     -1.09720442	      0.88884557	     -0.57851121	     10.16997062	     -0.32859471	      1.19001651	    -10.06852203	     12.40928875	     -4.68705156	     17.24328884	     -6.65441122	     -2.08426028	    -23.14855853	     12.89611413	     11.62783688	     -0.94776848	      4.40745952	      9.73002131
      0.09000000	     -7.72845593	     -0.46822114	      3.77828706	     -1.09758406	      0.88895789	     -0.57815213	     10.04182968	     -0.27488885	      1.17251212	     -9.86160574	     12.29082797	     -4.71306426	     17.47083302	     -6.72426188	     -2.37373360	    -23.84555368	     13.11846465	     11.70182221	     -1.01967457	      4.36472323	     10.02317619
      0.10000000	     -7.68565430	     -0.51969317	      3.73463232	     -1.09789220	      0.88902546	     -0.57779965	      9.91565779	     -0.19391720	      1.17826454	     -9.65042557	     12.17241044	     -4.73264804	     17.67592276	     -6.82332652	     -2.69628787	    -24.54626926	     13.32613003	     11.72019783	     -1.07104198	      4.34077435	     10.31720595
      0.11000000	     -7.64883980	     -0.59483589	      3.66734222	     -1.09812582	      0.88904459	     -0.57746590	      9.79195246	     -0.08733377	      1.20244416	     -9.43566777	     12.05827578	     -4.74348083	     17.85010334	     -6.94907673	     -3.04347113	    -25.23073897	     13.51282901	     11.68181164	     -1.09965325	      4.33690250	     10.60390990
      0.12000000	     -7.61906208	     -0.69207645	      3.57939571	     -1.09828698	      0.88901304	     -0.57717335	      9.67239519	      0.03974940	      1.24117204	     -9.21881273	     11.94923618	     -4.74434974	     17.98598551	     -7.09641364	     -3.39837241	    -25.87674932	     13.66671172	     11.58775930	     -1.10650769	      4.35498643	     10.88238666
      0.13000000	     -7.59707278	     -0.81009391	      3.47597270	     -1.09838005	      0.88893066	     -0.57691987	      9.55919257	      0.18618635	      1.29088942	     -9.00442294	     11.84736541	     -4.73464084	     18.07539354	     -7.26129691	     -3.75368982	    -26.45356618	     13.77531114	     11.43552559	     -1.09058650	      4.39040797	     11.14382377
      0.14000000	     -7.58263515	     -0.94776275	      3.35677206	     -1.09840379	      0.88879619	     -0.57671283	      9.45522724	      0.35051118	      1.35199029	     -8.79835790	     11.75387076	     -4.71383179	     18.10960864	     -7.43940245	     -4.09554238	    -26.93266391	     13.83055423	     11.21671616	     -1.05308525	      4.44444764	     11.38978629
      0.15000000	     -7.58426695	     -1.08655817	      3.22946714	     -1.09833312	      0.88861071	     -0.57657981	      9.36036001	      0.50932949	      1.41041276	     -8.58764391	     11.66632811	     -4.68260382	     18.07788274	     -7.60011616	     -4.41229690	    -27.26350331	     13.84381445	     10.75721280	     -0.98011629	      4.49771541	     11.60472702
      0.16000000	     -7.57892849	     -1.26753971	      3.08026159	     -1.09823903	      0.88837960	     -0.57645235	      9.28580790	      0.71570564	      1.49249399	     -8.43049745	     11.60445339	     -4.63913300	     17.98262017	     -7.80287984	     -4.70162307	    -27.46564510	     13.80574923	     10.46293262	     -0.91104542	      4.59263221	     11.82341579
      0.17000000	     -7.57777375	     -1.43326576	      2.93810731	     -1.09804941	      0.88812317	     -0.57642921	      9.20777403	      0.89598231	      1.55424065	     -8.27395876	     11.56215451	     -4.57618951	     17.80909665	     -7.96553085	     -4.96407323	    -27.47951244	     13.73155587	      9.82558308	     -0.82105749	      4.67090833	     11.97388586
      0.18000000	     -7.59019912	     -1.63651023	      2.78096116	     -1.09781081	      0.88780436	     -0.57642122	      9.15977606	      1.11754877	      1.63395521	     -8.14959073	     11.52075942	     -4.51650093	     17.58515088	     -8.16158075	     -5.20679544	    -27.31976385	     13.69087363	      9.31061581	     -0.70439657	      4.78602686	     12.12046058
